<mxfile host="Electron" modified="2023-11-09T17:45:49.490Z" agent="Mozilla/5.0 (Windows NT 10.0; Win64; x64) AppleWebKit/537.36 (KHTML, like Gecko) draw.io/22.0.3 Chrome/114.0.5735.289 Electron/25.8.4 Safari/537.36" etag="fDASq5IsPyWT0frHHEKf" version="22.0.3" type="device" pages="3">
  <diagram id="C5RBs43oDa-KdzZeNtuy" name="1">
    <mxGraphModel dx="1102" dy="990" grid="1" gridSize="10" guides="1" tooltips="1" connect="1" arrows="1" fold="1" page="1" pageScale="1" pageWidth="827" pageHeight="1169" math="0" shadow="0">
      <root>
        <mxCell id="WIyWlLk6GJQsqaUBKTNV-0" />
        <mxCell id="WIyWlLk6GJQsqaUBKTNV-1" parent="WIyWlLk6GJQsqaUBKTNV-0" />
        <mxCell id="zf618Hy3znA_g6eIzBKw-6" style="edgeStyle=orthogonalEdgeStyle;rounded=0;orthogonalLoop=1;jettySize=auto;html=1;" parent="WIyWlLk6GJQsqaUBKTNV-1" source="zf618Hy3znA_g6eIzBKw-1" target="zf618Hy3znA_g6eIzBKw-2" edge="1">
          <mxGeometry relative="1" as="geometry" />
        </mxCell>
        <mxCell id="zf618Hy3znA_g6eIzBKw-1" value="Начало" style="rounded=1;whiteSpace=wrap;html=1;arcSize=50;" parent="WIyWlLk6GJQsqaUBKTNV-1" vertex="1">
          <mxGeometry x="120" y="40" width="120" height="40" as="geometry" />
        </mxCell>
        <mxCell id="zf618Hy3znA_g6eIzBKw-7" style="edgeStyle=orthogonalEdgeStyle;rounded=0;orthogonalLoop=1;jettySize=auto;html=1;" parent="WIyWlLk6GJQsqaUBKTNV-1" source="zf618Hy3znA_g6eIzBKw-2" target="zf618Hy3znA_g6eIzBKw-3" edge="1">
          <mxGeometry relative="1" as="geometry" />
        </mxCell>
        <mxCell id="zf618Hy3znA_g6eIzBKw-2" value="x := 3" style="rounded=0;whiteSpace=wrap;html=1;" parent="WIyWlLk6GJQsqaUBKTNV-1" vertex="1">
          <mxGeometry x="120" y="110" width="120" height="40" as="geometry" />
        </mxCell>
        <mxCell id="zf618Hy3znA_g6eIzBKw-8" style="edgeStyle=orthogonalEdgeStyle;rounded=0;orthogonalLoop=1;jettySize=auto;html=1;" parent="WIyWlLk6GJQsqaUBKTNV-1" source="zf618Hy3znA_g6eIzBKw-3" target="zf618Hy3znA_g6eIzBKw-4" edge="1">
          <mxGeometry relative="1" as="geometry" />
        </mxCell>
        <mxCell id="zf618Hy3znA_g6eIzBKw-3" value="y := x^2" style="rounded=0;whiteSpace=wrap;html=1;" parent="WIyWlLk6GJQsqaUBKTNV-1" vertex="1">
          <mxGeometry x="120" y="180" width="120" height="40" as="geometry" />
        </mxCell>
        <mxCell id="zf618Hy3znA_g6eIzBKw-9" style="edgeStyle=orthogonalEdgeStyle;rounded=0;orthogonalLoop=1;jettySize=auto;html=1;" parent="WIyWlLk6GJQsqaUBKTNV-1" source="zf618Hy3znA_g6eIzBKw-4" target="zf618Hy3znA_g6eIzBKw-5" edge="1">
          <mxGeometry relative="1" as="geometry" />
        </mxCell>
        <mxCell id="zf618Hy3znA_g6eIzBKw-4" value="y" style="shape=parallelogram;perimeter=parallelogramPerimeter;whiteSpace=wrap;html=1;fixedSize=1;" parent="WIyWlLk6GJQsqaUBKTNV-1" vertex="1">
          <mxGeometry x="120" y="250" width="120" height="40" as="geometry" />
        </mxCell>
        <mxCell id="zf618Hy3znA_g6eIzBKw-5" value="Конец" style="rounded=1;whiteSpace=wrap;html=1;arcSize=50;" parent="WIyWlLk6GJQsqaUBKTNV-1" vertex="1">
          <mxGeometry x="120" y="320" width="120" height="40" as="geometry" />
        </mxCell>
      </root>
    </mxGraphModel>
  </diagram>
  <diagram id="lLCxyO07bRN_uIhbSZaW" name="2a">
    <mxGraphModel dx="1100" dy="990" grid="1" gridSize="10" guides="1" tooltips="1" connect="1" arrows="1" fold="1" page="1" pageScale="1" pageWidth="827" pageHeight="1169" math="0" shadow="0">
      <root>
        <mxCell id="0" />
        <mxCell id="1" parent="0" />
        <mxCell id="c6T8mYWIUjRT8G5Ujx9O-12" style="edgeStyle=orthogonalEdgeStyle;rounded=0;orthogonalLoop=1;jettySize=auto;html=1;" edge="1" parent="1" source="c6T8mYWIUjRT8G5Ujx9O-2" target="c6T8mYWIUjRT8G5Ujx9O-11">
          <mxGeometry relative="1" as="geometry" />
        </mxCell>
        <mxCell id="c6T8mYWIUjRT8G5Ujx9O-2" value="Начало" style="rounded=1;whiteSpace=wrap;html=1;arcSize=50;strokeWidth=2;" vertex="1" parent="1">
          <mxGeometry x="120" y="40" width="120" height="40" as="geometry" />
        </mxCell>
        <mxCell id="c6T8mYWIUjRT8G5Ujx9O-5" style="edgeStyle=orthogonalEdgeStyle;rounded=0;orthogonalLoop=1;jettySize=auto;html=1;strokeWidth=2;" edge="1" parent="1" source="c6T8mYWIUjRT8G5Ujx9O-6" target="c6T8mYWIUjRT8G5Ujx9O-8">
          <mxGeometry relative="1" as="geometry" />
        </mxCell>
        <mxCell id="c6T8mYWIUjRT8G5Ujx9O-6" value="y := x^2" style="rounded=0;whiteSpace=wrap;html=1;strokeWidth=2;" vertex="1" parent="1">
          <mxGeometry x="120" y="190" width="120" height="40" as="geometry" />
        </mxCell>
        <mxCell id="c6T8mYWIUjRT8G5Ujx9O-7" style="edgeStyle=orthogonalEdgeStyle;rounded=0;orthogonalLoop=1;jettySize=auto;html=1;strokeWidth=2;" edge="1" parent="1" source="c6T8mYWIUjRT8G5Ujx9O-8" target="c6T8mYWIUjRT8G5Ujx9O-9">
          <mxGeometry relative="1" as="geometry" />
        </mxCell>
        <mxCell id="c6T8mYWIUjRT8G5Ujx9O-8" value="x, y" style="shape=parallelogram;perimeter=parallelogramPerimeter;whiteSpace=wrap;html=1;fixedSize=1;strokeWidth=2;" vertex="1" parent="1">
          <mxGeometry x="120" y="260" width="120" height="40" as="geometry" />
        </mxCell>
        <mxCell id="c6T8mYWIUjRT8G5Ujx9O-9" value="Конец" style="rounded=1;whiteSpace=wrap;html=1;arcSize=50;strokeWidth=2;" vertex="1" parent="1">
          <mxGeometry x="120" y="330" width="120" height="40" as="geometry" />
        </mxCell>
        <mxCell id="c6T8mYWIUjRT8G5Ujx9O-13" style="edgeStyle=orthogonalEdgeStyle;rounded=0;orthogonalLoop=1;jettySize=auto;html=1;strokeWidth=2;" edge="1" parent="1" source="c6T8mYWIUjRT8G5Ujx9O-11" target="c6T8mYWIUjRT8G5Ujx9O-6">
          <mxGeometry relative="1" as="geometry">
            <Array as="points">
              <mxPoint x="180" y="170" />
              <mxPoint x="180" y="170" />
            </Array>
          </mxGeometry>
        </mxCell>
        <mxCell id="c6T8mYWIUjRT8G5Ujx9O-11" value="x" style="html=1;strokeWidth=2;shape=manualInput;whiteSpace=wrap;rounded=1;size=13;arcSize=0;" vertex="1" parent="1">
          <mxGeometry x="120" y="110" width="120" height="50" as="geometry" />
        </mxCell>
      </root>
    </mxGraphModel>
  </diagram>
  <diagram name="2b" id="6yVprt04gUfnQX711982">
    <mxGraphModel dx="1100" dy="990" grid="1" gridSize="10" guides="1" tooltips="1" connect="1" arrows="1" fold="1" page="1" pageScale="1" pageWidth="827" pageHeight="1169" math="0" shadow="0">
      <root>
        <mxCell id="VI78qopesZlQJRhIW3ZC-0" />
        <mxCell id="VI78qopesZlQJRhIW3ZC-1" parent="VI78qopesZlQJRhIW3ZC-0" />
        <mxCell id="mAvoDcP-DXkQ1yRuVsbg-1" style="edgeStyle=orthogonalEdgeStyle;rounded=0;orthogonalLoop=1;jettySize=auto;html=1;entryX=0.5;entryY=0;entryDx=0;entryDy=0;strokeWidth=1;" edge="1" parent="VI78qopesZlQJRhIW3ZC-1" source="VI78qopesZlQJRhIW3ZC-3" target="mAvoDcP-DXkQ1yRuVsbg-0">
          <mxGeometry relative="1" as="geometry" />
        </mxCell>
        <mxCell id="VI78qopesZlQJRhIW3ZC-3" value="Начало" style="rounded=1;whiteSpace=wrap;html=1;arcSize=50;strokeWidth=1;" vertex="1" parent="VI78qopesZlQJRhIW3ZC-1">
          <mxGeometry x="120" y="40" width="120" height="40" as="geometry" />
        </mxCell>
        <mxCell id="VI78qopesZlQJRhIW3ZC-4" style="edgeStyle=orthogonalEdgeStyle;rounded=0;orthogonalLoop=1;jettySize=auto;html=1;strokeWidth=1;" edge="1" parent="VI78qopesZlQJRhIW3ZC-1" source="VI78qopesZlQJRhIW3ZC-5" target="VI78qopesZlQJRhIW3ZC-7">
          <mxGeometry relative="1" as="geometry" />
        </mxCell>
        <mxCell id="VI78qopesZlQJRhIW3ZC-5" value="y := x^2" style="rounded=0;whiteSpace=wrap;html=1;strokeWidth=1;" vertex="1" parent="VI78qopesZlQJRhIW3ZC-1">
          <mxGeometry x="120" y="260" width="120" height="40" as="geometry" />
        </mxCell>
        <mxCell id="VI78qopesZlQJRhIW3ZC-6" style="edgeStyle=orthogonalEdgeStyle;rounded=0;orthogonalLoop=1;jettySize=auto;html=1;strokeWidth=1;" edge="1" parent="VI78qopesZlQJRhIW3ZC-1" source="VI78qopesZlQJRhIW3ZC-7" target="VI78qopesZlQJRhIW3ZC-8">
          <mxGeometry relative="1" as="geometry" />
        </mxCell>
        <mxCell id="VI78qopesZlQJRhIW3ZC-7" value="x, y" style="shape=parallelogram;perimeter=parallelogramPerimeter;whiteSpace=wrap;html=1;fixedSize=1;strokeWidth=1;" vertex="1" parent="VI78qopesZlQJRhIW3ZC-1">
          <mxGeometry x="120" y="330" width="120" height="40" as="geometry" />
        </mxCell>
        <mxCell id="VI78qopesZlQJRhIW3ZC-8" value="Конец" style="rounded=1;whiteSpace=wrap;html=1;arcSize=50;strokeWidth=1;" vertex="1" parent="VI78qopesZlQJRhIW3ZC-1">
          <mxGeometry x="120" y="400" width="120" height="40" as="geometry" />
        </mxCell>
        <mxCell id="VI78qopesZlQJRhIW3ZC-9" style="edgeStyle=orthogonalEdgeStyle;rounded=0;orthogonalLoop=1;jettySize=auto;html=1;strokeWidth=1;" edge="1" parent="VI78qopesZlQJRhIW3ZC-1" source="VI78qopesZlQJRhIW3ZC-10" target="VI78qopesZlQJRhIW3ZC-5">
          <mxGeometry relative="1" as="geometry">
            <Array as="points">
              <mxPoint x="180" y="240" />
              <mxPoint x="180" y="240" />
            </Array>
          </mxGeometry>
        </mxCell>
        <mxCell id="VI78qopesZlQJRhIW3ZC-10" value="x" style="html=1;strokeWidth=1;shape=manualInput;whiteSpace=wrap;rounded=1;size=13;arcSize=0;" vertex="1" parent="VI78qopesZlQJRhIW3ZC-1">
          <mxGeometry x="120" y="180" width="120" height="50" as="geometry" />
        </mxCell>
        <mxCell id="mAvoDcP-DXkQ1yRuVsbg-2" style="edgeStyle=orthogonalEdgeStyle;rounded=0;orthogonalLoop=1;jettySize=auto;html=1;strokeWidth=1;" edge="1" parent="VI78qopesZlQJRhIW3ZC-1" source="mAvoDcP-DXkQ1yRuVsbg-0" target="VI78qopesZlQJRhIW3ZC-10">
          <mxGeometry relative="1" as="geometry" />
        </mxCell>
        <mxCell id="mAvoDcP-DXkQ1yRuVsbg-0" value="&quot;Введите значение x: &quot;" style="shape=parallelogram;perimeter=parallelogramPerimeter;whiteSpace=wrap;html=1;fixedSize=1;strokeWidth=1;" vertex="1" parent="VI78qopesZlQJRhIW3ZC-1">
          <mxGeometry x="100" y="110" width="160" height="40" as="geometry" />
        </mxCell>
      </root>
    </mxGraphModel>
  </diagram>
</mxfile>
